<?xml version="1.0" encoding="UTF-8"?>
<svg width="40px" height="40px" viewBox="0 0 40 40" version="1.1" xmlns="http://www.w3.org/2000/svg" xmlns:xlink="http://www.w3.org/1999/xlink">
    <title>Excel</title>
    <defs>
        <rect id="path-1" x="0" y="0" width="40" height="40"></rect>
        <linearGradient x1="50%" y1="0%" x2="50%" y2="100%" id="linearGradient-3">
            <stop stop-color="#53B27E" offset="0%"></stop>
            <stop stop-color="#1C7143" offset="100%"></stop>
        </linearGradient>
    </defs>
    <g id="Excel" stroke="none" stroke-width="1" fill="none" fill-rule="evenodd">
        <g id="Group">
            <mask id="mask-2" fill="white">
                <use xlink:href="#path-1"></use>
            </mask>
            <use id="蒙版" fill="#F0F6F3" fill-rule="nonzero" opacity="0.701060268" xlink:href="#path-1"></use>
            <g id="excel" mask="url(#mask-2)" fill-rule="nonzero">
                <g transform="translate(6.000000, 6.000000)">
                    <path d="M16.7754962,24.7366055 C16.7754962,24.7366055 16.7588985,22.6522461 16.7588985,21.5764063 L20.4314688,21.5764063 L20.4314688,19.3897266 L16.7763985,19.3897266 L16.7763985,17.2546445 L20.4314688,17.2546445 L20.4314688,15.0854648 L16.7763985,15.0854648 L16.7763985,12.9495078 L20.4489688,12.9495078 L20.4489688,10.7803281 L16.7763985,10.7803281 L16.7763985,8.66012109 L20.4830664,8.66012109 L20.4830664,6.45594141 L16.7763712,6.45594141 L16.7763712,3.11035156 L28,3.11035156 L28,24.7532578 L17.2546445,24.7357578 L16.7754962,24.7366055 Z M21.5431836,8.61027344 L25.64275,8.61027344 C25.8308203,8.61027344 25.864918,8.50792578 25.864918,8.35398047 L25.864918,6.44021875 L21.5597812,6.44021875 C21.5422812,7.17494531 21.5422812,7.87467187 21.5422812,8.60939844 L21.5431836,8.61027344 Z M21.5256836,10.7794531 L21.5256836,12.3346289 C21.5256836,12.9495078 21.5256836,12.9495078 22.1580625,12.9495078 L25.5745273,12.9495078 C25.676875,12.9495078 25.8483203,12.8638125 25.8483203,12.8121875 C25.8658203,12.1465586 25.8658203,11.480082 25.8658203,10.7969531 C24.3963672,10.7794531 22.9785117,10.7794531 21.5256836,10.7794531 L21.5256836,10.7794531 Z M25.8308203,15.0845898 L21.5431836,15.0845898 L21.5431836,17.2205469 L25.8308203,17.2205469 L25.8308203,15.0845898 Z M21.5431836,21.5256836 C21.5939062,21.5431836 21.6288789,21.5606836 21.6455039,21.5606836 C22.9785117,21.5606836 24.3106445,21.5606836 25.64275,21.5772813 C25.8308203,21.5772813 25.864918,21.4915586 25.864918,21.3384883 C25.864918,20.791832 25.847418,20.2451484 25.864918,19.6984922 C25.882418,19.4421992 25.7800703,19.3906016 25.5413047,19.3906016 C24.3106445,19.4081016 23.0633594,19.3906016 21.8326719,19.3906016 C21.7478516,19.3906016 21.6630039,19.4081016 21.5597812,19.4081016 C21.5422812,20.1253281 21.5422812,20.8250547 21.5422812,21.5256836 L21.5431836,21.5256836 Z" id="形状" fill="#73B08F"></path>
                    <path d="M16.092207,0 L16.092207,28 C10.7287305,26.9573828 5.36435156,25.9322656 4.26325641e-14,24.8905508 L4.26325641e-14,24.8905508 L4.26325641e-14,3.10944922 C5.34687891,2.06685937 10.7112305,1.04174219 16.092207,0 L16.092207,0 Z M6.04748047,8.55867578 C5.51742188,8.52455078 4.97164063,8.54117578 4.44158203,8.54117578 L4.44158203,8.54117578 L3.29751953,8.54117578 C3.38236719,8.71262109 3.43396484,8.81494141 3.5021875,8.91726172 C4.44158203,10.5231602 5.36435156,12.1465586 6.32127344,13.752457 C6.44021875,13.9571523 6.42359375,14.0935977 6.30377344,14.2816406 C5.26203125,15.9050391 4.23691406,17.5450352 3.19429688,19.1675586 L3.19429688,19.1675586 L3.11350977,19.3021548 C3.08366406,19.3512471 3.04955273,19.4067891 3.00712891,19.4754492 C3.98062109,19.4754492 4.88591797,19.4754492 5.79121484,19.4579492 C5.87691016,19.4579492 5.97838281,19.3556289 6.03085547,19.2698789 C6.74808203,17.9543711 7.43211328,16.6388633 8.11433984,15.3583555 C8.1825625,15.5114258 8.23416016,15.7510937 8.35400781,15.9723867 L8.35400781,15.9723867 L10.0788516,19.2699062 C10.1820742,19.4413242 10.2843945,19.4745742 10.4549648,19.4745742 L10.4549648,19.4745742 L12.5217969,19.4745742 L12.5217969,19.4754492 L13.1025781,19.5086719 C13.0177305,19.3556289 12.9661328,19.2699063 12.9154102,19.1675586 C11.9192568,17.523758 10.9168733,15.883741 9.90828125,14.247543 C9.78846094,14.0419727 9.78846094,13.9055273 9.90828125,13.7183594 L9.90828125,13.7183594 L12.8296875,8.89978906 C12.8979102,8.79831641 12.9320352,8.71259375 13.0177578,8.55864844 C12.0949609,8.55864844 11.2237891,8.55864844 10.3692422,8.57614844 C10.3009922,8.57614844 10.2161719,8.67849609 10.1820469,8.74671875 C9.53216797,10.0281016 8.90066406,11.3095117 8.25166016,12.5909219 C8.23416016,12.6250195 8.2000625,12.6591172 8.1659375,12.7098672 C8.09771484,12.5043242 8.04611719,12.3346289 7.97789453,12.1806836 C7.44871094,11.0191211 6.90202734,9.87505859 6.35537109,8.72921875 C6.32124609,8.64437109 6.14982813,8.55867578 6.04748047,8.55867578 Z" id="形状结合" fill="url(#linearGradient-3)"></path>
                </g>
            </g>
        </g>
    </g>
</svg>