<?xml version="1.0" encoding="UTF-8"?>
<svg width="29px" height="14px" viewBox="0 0 29 14" version="1.1" xmlns="http://www.w3.org/2000/svg" xmlns:xlink="http://www.w3.org/1999/xlink">
    <title>编组 35</title>
    <g id="素材中心H5" stroke="none" stroke-width="1" fill="none" fill-rule="evenodd">
        <g id="编组-35">
            <path d="M6,0 L29,0 L29,0 L29,14 L0,14 L0,6 C-4.05812251e-16,2.6862915 2.6862915,6.08718376e-16 6,0 Z" id="矩形" fill-opacity="0.5" fill="#000000" fill-rule="nonzero"></path>
            <text id="H5" font-family="PingFangSC-Regular, PingFang SC" font-size="10" font-weight="normal" fill="#FFFFFF">
                <tspan x="12.9" y="11">H5</tspan>
            </text>
            <g id="链接-(4)" transform="translate(3.000000, 4.000000)" fill="#FFFFFF" fill-rule="nonzero" stroke="#FFFFFF" stroke-width="0.2">
                <path d="M2.77616563,5.48296805 L2.15186707,6.08963106 C1.81097243,6.43052569 1.25827303,6.43052568 0.917378395,6.08963105 C0.576483762,5.74873642 0.576483757,5.19603702 0.917378382,4.85514238 L2.51868656,3.25030709 C2.84512042,2.92281299 3.37102619,2.90885089 3.71437703,3.2185631 L3.75670235,3.25383421 C3.89598216,3.39019206 4.11943063,3.38782334 4.25578849,3.24854353 C4.39214634,3.10926372 4.38977763,2.88581525 4.25049782,2.7494574 C4.23059095,2.72371834 4.2094015,2.69899731 4.18700983,2.67538808 C3.56220761,2.1317999 2.6229503,2.16573038 2.03899953,2.75298451 L0.416528694,4.35781979 C-0.156289084,4.98131395 -0.135876507,5.94550116 0.46281589,6.54419356 C1.06150829,7.14288595 2.02569549,7.16329853 2.64918965,6.59048075 L3.25937977,5.99439908 C3.38437049,5.85804193 3.38278652,5.6482893 3.25575073,5.51383536 C3.12871494,5.37938142 2.91938945,5.3659087 2.77616563,5.48296805 Z M6.54664677,0.460362677 C5.92899219,-0.153454226 4.93164039,-0.153454226 4.31398581,0.460362677 L3.70379569,1.05644435 C3.57880497,1.1928015 3.58038894,1.40255413 3.70742473,1.53700807 C3.83446052,1.67146201 4.04378602,1.68493472 4.18700983,1.56787538 L4.79719996,0.961212365 C5.1380946,0.620317729 5.69079401,0.620317731 6.03168864,0.961212369 C6.37258328,1.30210701 6.37258327,1.85480642 6.03168864,2.19570105 L4.43038046,3.80053634 C4.1039466,4.12803044 3.57804083,4.14199254 3.23468999,3.83228033 L3.19236467,3.79700922 C3.05308486,3.66065137 2.82963638,3.66302008 2.69327853,3.80229989 C2.55692067,3.9415797 2.55928939,4.16502818 2.6985692,4.30138603 C2.72418943,4.32758847 2.75127404,4.35231789 2.77969274,4.37545535 C3.40511442,4.91728911 4.34300783,4.88340791 4.92770304,4.29785892 L6.53253833,2.69302363 C7.1502755,2.07925507 7.15657797,1.08188902 6.54664677,0.460362677 L6.54664677,0.460362677 Z" id="形状"></path>
            </g>
        </g>
    </g>
</svg>