<?xml version="1.0" encoding="UTF-8"?>
<svg width="40px" height="40px" viewBox="0 0 40 40" version="1.1" xmlns="http://www.w3.org/2000/svg" xmlns:xlink="http://www.w3.org/1999/xlink">
    <title>音频</title>
    <defs>
        <rect id="path-1" x="0" y="0" width="40" height="40"></rect>
        <linearGradient x1="50%" y1="0%" x2="50%" y2="100%" id="linearGradient-3">
            <stop stop-color="#B7B9F9" offset="0%"></stop>
            <stop stop-color="#8183F1" offset="100%"></stop>
        </linearGradient>
    </defs>
    <g id="音频" stroke="none" stroke-width="1" fill="none" fill-rule="evenodd">
        <g id="Group">
            <mask id="mask-2" fill="white">
                <use xlink:href="#path-1"></use>
            </mask>
            <use id="蒙版" fill="#EEEAFF" fill-rule="nonzero" opacity="0.701060268" xlink:href="#path-1"></use>
            <g id="音频-(5)" mask="url(#mask-2)" fill-rule="nonzero">
                <g transform="translate(9.000000, 6.000000)">
                    <path d="M15.8125,-9.09494702e-13 L23,7 L23,26.6 C23,27.37 22.353125,28 21.5625,28 L1.4375,28 C0.646875,28 0,27.37 0,26.6 L0,1.4 C0,0.63 0.646875,-9.09494702e-13 1.4375,-9.09494702e-13 L15.8125,-9.09494702e-13 Z M14.590625,9.87 L9.128125,11.48 C8.48125,11.69 7.90625,12.32 7.90625,12.95 L7.90625,18.55 C7.90625,18.55 7.475,18.27 6.6125,18.41 C5.390625,18.62 4.3125,19.6 4.3125,20.65 C4.3125,21.7 5.390625,22.26 6.684375,22.12 C7.978125,21.91 8.9125,21 8.9125,20.02 L8.9125,14.63 C8.9125,14.21 9.4875,14 9.4875,14 L14.303125,12.53 C14.303125,12.53 14.80625,12.39 14.80625,12.81 L14.80625,17.29 C14.80625,17.29 14.303125,17.01 13.440625,17.15 C12.146875,17.29 11.06875,18.27 11.06875,19.25 C11.06875,20.23 12.146875,20.93 13.440625,20.79 C14.734375,20.65 15.8125,19.67 15.8125,18.69 L15.8125,10.71 C15.8125,10.08 15.2375,9.66 14.590625,9.87 L14.590625,9.87 Z" id="形状" fill="url(#linearGradient-3)"></path>
                    <polygon id="路径" fill="#D5D5FF" points="16 -9.09494702e-13 23 7 16 7"></polygon>
                </g>
            </g>
        </g>
    </g>
</svg>