<?xml version="1.0" encoding="UTF-8"?>
<svg width="40px" height="40px" viewBox="0 0 40 40" version="1.1" xmlns="http://www.w3.org/2000/svg" xmlns:xlink="http://www.w3.org/1999/xlink">
    <title>Group</title>
    <defs>
        <rect id="path-1" x="0" y="0" width="40" height="40"></rect>
        <linearGradient x1="50%" y1="0%" x2="50%" y2="100%" id="linearGradient-3">
            <stop stop-color="#FFD52E" offset="0%"></stop>
            <stop stop-color="#F48C0A" offset="100%"></stop>
        </linearGradient>
    </defs>
    <g id="控件" stroke="none" stroke-width="1" fill="none" fill-rule="evenodd">
        <g id="Group">
            <mask id="mask-2" fill="white">
                <use xlink:href="#path-1"></use>
            </mask>
            <use id="蒙版" fill="#FAEDD3" fill-rule="nonzero" xlink:href="#path-1"></use>
            <g id="其他" mask="url(#mask-2)">
                <g transform="translate(8.000000, 6.000000)" id="文档">
                    <g transform="translate(0.000000, -0.000000)">
                        <path d="M15.3191489,23.9828653 L15.3191489,28.3636364 L21.5927052,23.0176107 L16.3404255,23.0176107 C15.8297872,23.0176107 15.3191489,23.4631128 15.3191489,23.9828653 L15.3191489,23.9828653 Z M20.5714286,2.45026178 L0.948328267,2.45026178 C0.43768997,2.45026178 0,3.04426464 0,3.56401713 L0,27.4726321 C0,27.9923846 0.364741641,28.3636364 0.875379939,28.3636364 L14.3708207,28.3636364 L14.3708207,23.0176107 C14.3708207,22.4978582 14.881459,21.9781057 15.3191489,21.9781057 L21.5927052,21.9781057 L21.5927052,3.41551642 C21.5927052,2.97001428 21.0820669,2.37601142 20.5714286,2.45026178 Z M4.52279635,20.5673489 C3.8662614,20.5673489 3.3556231,20.0475964 3.3556231,19.3793432 C3.3556231,18.71109 3.8662614,18.1913375 4.52279635,18.1913375 C5.17933131,18.1913375 5.6899696,18.71109 5.6899696,19.3793432 C5.6899696,19.973346 5.17933131,20.5673489 4.52279635,20.5673489 L4.52279635,20.5673489 Z M4.52279635,15.1470728 C3.8662614,15.1470728 3.3556231,14.6273203 3.3556231,13.9590671 C3.3556231,13.2908139 3.8662614,12.7710614 4.52279635,12.7710614 C5.17933131,12.7710614 5.6899696,13.2908139 5.6899696,13.9590671 C5.6899696,14.6273203 5.17933131,15.1470728 4.52279635,15.1470728 L4.52279635,15.1470728 Z M4.52279635,9.80104712 C3.8662614,9.80104712 3.3556231,9.28129462 3.3556231,8.61304141 C3.3556231,7.9447882 3.8662614,7.4250357 4.52279635,7.4250357 C5.17933131,7.4250357 5.6899696,7.9447882 5.6899696,8.61304141 C5.6899696,9.20704426 5.17933131,9.80104712 4.52279635,9.80104712 L4.52279635,9.80104712 Z M17.2158055,19.5278439 C17.2158055,19.8248453 16.9969605,20.0475964 16.7051672,20.0475964 L8.09726444,20.0475964 C7.80547112,20.0475964 7.58662614,19.8248453 7.58662614,19.5278439 L7.58662614,19.0080914 C7.58662614,18.71109 7.80547112,18.4883389 8.09726444,18.4883389 L16.7051672,18.4883389 C16.9969605,18.4883389 17.2158055,18.71109 17.2158055,19.0080914 L17.2158055,19.5278439 Z M17.2158055,14.1818182 C17.2158055,14.4788196 16.9969605,14.7015707 16.7051672,14.7015707 L8.09726444,14.7015707 C7.80547112,14.7015707 7.58662614,14.4788196 7.58662614,14.1818182 L7.58662614,13.6620657 C7.58662614,13.3650643 7.80547112,13.1423132 8.09726444,13.1423132 L16.7051672,13.1423132 C16.9969605,13.1423132 17.2158055,13.3650643 17.2158055,13.6620657 L17.2158055,14.1818182 Z M17.2158055,8.83579248 C17.2158055,9.13279391 16.9969605,9.35554498 16.7051672,9.35554498 L8.09726444,9.35554498 C7.80547112,9.35554498 7.58662614,9.13279391 7.58662614,8.83579248 L7.58662614,8.31603998 C7.58662614,8.01903855 7.80547112,7.79628748 8.09726444,7.79628748 L16.7051672,7.79628748 C16.9969605,7.79628748 17.2158055,8.01903855 17.2158055,8.31603998 L17.2158055,8.83579248 Z" id="形状" fill="url(#linearGradient-3)" fill-rule="nonzero"></path>
                        <path d="M23.1246201,0 L3.13677812,0 C2.40729483,0 1.89665653,0.74250357 1.89665653,1.48500714 L21.5927052,1.48500714 C22.1033435,1.48500714 22.5410334,2.00475964 22.5410334,2.45026178 L22.5410334,20.5673489 C23.2705167,20.5673489 24,20.1218467 24,19.3793432 L24,0.891004284 C23.9270517,0.371251785 23.56231,0 23.1246201,0 Z" id="路径" fill="#EC7847" fill-rule="nonzero"></path>
                    </g>
                </g>
            </g>
        </g>
    </g>
</svg>