<?xml version="1.0" encoding="UTF-8"?>
<svg width="40px" height="40px" viewBox="0 0 40 40" version="1.1" xmlns="http://www.w3.org/2000/svg" xmlns:xlink="http://www.w3.org/1999/xlink">
    <title>PDF</title>
    <defs>
        <rect id="path-1" x="0" y="0" width="40" height="40"></rect>
        <linearGradient x1="50%" y1="0%" x2="50%" y2="100%" id="linearGradient-3">
            <stop stop-color="#FF8888" offset="0%"></stop>
            <stop stop-color="#F32727" offset="100%"></stop>
        </linearGradient>
    </defs>
    <g id="PDF" stroke="none" stroke-width="1" fill="none" fill-rule="evenodd">
        <g id="Group">
            <mask id="mask-2" fill="white">
                <use xlink:href="#path-1"></use>
            </mask>
            <use id="蒙版" fill="#FAF4F4" fill-rule="nonzero" opacity="0.701060268" xlink:href="#path-1"></use>
            <g id="PDF-(5)" mask="url(#mask-2)" fill-rule="nonzero">
                <g transform="translate(6.000000, 6.000000)">
                    <path d="M3.7845092,18.4696127 C3.20743865,18.6910468 2.71088957,19.0735238 2.36196319,19.5667178 L2.47939034,19.5298121 C3.03297546,19.3385736 3.46913344,18.9628067 3.7845092,18.4696127 Z M0.0067101227,25.0186925 L15.9331863,27.9778566 L15.9331863,0.0067101227 L0.0067101227,2.96251917 L0.0067101227,25.0186925 Z M5.0091066,16.6511695 C5.87806748,15.1380368 6.54907975,13.5846434 7.10266488,11.9574387 C6.62960123,11.048217 5.60295245,8.81374617 6.3108704,7.67973543 C6.54907975,7.26370782 7.0221434,7.03556365 7.53546779,7.07582439 C7.93807515,7.07917945 8.31719709,7.26035276 8.56211656,7.56566334 C9.07544095,8.2467408 9.03518021,9.68606212 8.36416794,11.8064609 C8.99491948,12.9404716 9.82361963,13.9637653 10.8133627,14.8327262 C11.6420629,14.6817485 12.4741181,14.5676764 13.3028183,14.5676764 C15.1581672,14.6079371 15.4332822,15.4399923 15.3963765,15.9298313 C15.3930215,17.2148198 14.0912577,17.2148198 13.4202454,17.2148198 C12.3432707,17.1443635 11.319977,16.7484663 10.497987,16.077454 C8.87749233,16.4196702 7.33751917,16.9128643 5.79754601,17.5167753 C4.57294862,19.6002684 3.42551764,20.6604678 2.4391296,20.6604678 C2.24118098,20.6604678 2.00297163,20.6235621 1.8486388,20.50949 C1.43596626,20.3249617 1.17091641,19.9257094 1.17750204,19.4861963 C1.17750204,19.1506902 1.25814801,18.2045629 5.0091066,16.6511695 L5.0091066,16.6511695 Z M7.61598926,8.20983512 L7.49856212,8.20983512 C7.45830138,8.20983512 7.38113497,8.20983512 7.34087423,8.2467408 C7.18318635,8.89091258 7.3006135,9.57199003 7.57908359,10.1759011 C7.80722776,9.54179448 7.82064801,8.8540069 7.61598926,8.20983512 L7.61598926,8.20983512 Z M6.70676764,16.349214 C7.58579371,16.0439034 8.48159509,15.7922738 9.39417178,15.5909701 L9.35391104,15.5540644 L9.47133819,15.5540644 C8.88084739,14.9904141 8.3507477,14.3697278 7.89110429,13.6987155 L7.85084356,13.7725268 L7.81058282,13.7356212 C7.45494632,14.6112922 7.05904908,15.4701879 6.62624617,16.3089532 L6.70341258,16.2720475 L6.70341258,16.349214 L6.70676764,16.349214 Z M14.2153949,16.0103528 C14.2153949,15.8962807 14.0577071,15.7083972 13.2659126,15.7083972 C12.9102761,15.7083972 12.5949003,15.7083972 12.2392638,15.7855637 C12.635161,15.9734471 13.0310583,16.0506135 13.4236005,16.0875192 C13.7020706,16.1244248 13.9771856,16.0841641 14.2153949,16.0103528 Z" id="形状" fill="url(#linearGradient-3)"></path>
                    <polygon id="路径" fill="#FFA2A2" points="16.7115606 3.50268405 16.7115606 5.41171396 26.0520514 5.41171396 26.0520514 7.32074387 16.7115606 7.32074387 16.7115606 9.22641871 26.0520514 9.22641871 26.0520514 11.1354486 16.7115606 11.1354486 16.7115606 13.0444785 26.0520514 13.0444785 26.0520514 14.9535084 16.7115606 15.091066 16.7115606 16.8625383 26.0520514 16.8625383 26.0520514 18.7715683 16.7115606 18.7715683 16.7115606 20.6805982 26.0520514 20.6805982 26.0520514 22.5795629 16.7115606 22.5795629 16.7115606 24.4718175 27.9745015 24.4718175 27.9745015 3.51274923 16.7115606 3.50268405"></polygon>
                </g>
            </g>
        </g>
    </g>
</svg>