<?xml version="1.0" encoding="UTF-8"?>
<svg width="40px" height="40px" viewBox="0 0 40 40" version="1.1" xmlns="http://www.w3.org/2000/svg" xmlns:xlink="http://www.w3.org/1999/xlink">
    <title>图片</title>
    <defs>
        <rect id="path-1" x="0" y="0" width="40" height="40"></rect>
        <linearGradient x1="50%" y1="0%" x2="50%" y2="100%" id="linearGradient-3">
            <stop stop-color="#FACF70" offset="0%"></stop>
            <stop stop-color="#F48E2D" offset="100%"></stop>
        </linearGradient>
    </defs>
    <g id="图片" stroke="none" stroke-width="1" fill="none" fill-rule="evenodd">
        <g id="Group">
            <mask id="mask-2" fill="white">
                <use xlink:href="#path-1"></use>
            </mask>
            <use id="蒙版" fill="#FAEDD3" fill-rule="nonzero" opacity="0.701060268" xlink:href="#path-1"></use>
            <g id="图片-(8)" mask="url(#mask-2)" fill-rule="nonzero">
                <g transform="translate(6.000000, 8.000000)">
                    <path d="M0.00976138393,3.84176438 L0.00976138393,20.7864473 C0.00976138393,22.3675582 0.321926886,22.6691023 1.84602499,22.6691023 L22.6562699,22.6691023 C24.1677937,22.6691023 24.4925335,22.3804751 24.4925335,20.7864473 L24.4925335,3.84176438 C24.4925335,2.29803388 24.2045231,1.95910939 22.6562699,1.95910939 L1.84602499,1.95910939 C0.327717254,1.95910939 0.00976138393,2.22868661 0.00976138393,3.84176438 Z M21.6096881,18.2761379 L2.90511265,18.2761379 C4.9494523,15.2198215 8.58487319,10.1239279 9.50869256,10.1239279 C10.4029091,10.1239279 13.4381541,14.2411136 14.8093045,15.6905538 C14.8093045,15.6905538 16.5726232,13.274706 17.4964768,13.274706 C18.4387637,13.274706 21.5790917,18.2510235 21.6096881,18.2761379 L21.6096881,18.2761379 Z M16.1136087,7.60731419 C16.1136087,6.32706221 17.1232213,5.29188974 18.3718148,5.29188974 C19.6204082,5.29188974 20.6300551,6.32706218 20.6300551,7.60731419 C20.6300551,8.88756619 19.6204082,9.92273863 18.3718148,9.92273863 C17.1232213,9.92273863 16.1136087,8.88756619 16.1136087,7.60731419 L16.1136087,7.60731419 Z" id="形状" fill="url(#linearGradient-3)"></path>
                    <path d="M11.4917366,0.823376551 L7.91178666,0.126751708 C6.72349517,-0.104520067 6.25276292,-0.021090904 5.9620115,0.823376551 L11.4917366,0.823376551 Z" id="路径" fill="#EC7847"></path>
                    <path d="M28.3571704,4.1051401 L25.5550474,3.55981838 C25.5561095,3.62964532 25.5567263,3.6989926 25.5567263,3.76738051 L25.5567263,20.8082382 C25.5567263,21.5989821 25.5056752,22.4937811 24.8960428,23.1065657 C24.3030277,23.7023218 23.4439987,23.7522765 22.6855301,23.7522765 L20.9958071,23.7522765 L24.5913808,24.4518821 C26.0763511,24.7408177 26.4478592,24.519345 26.7377541,22.9532068 L29.818808,6.30571667 C30.0995548,4.78895076 29.8782877,4.40092811 28.3571704,4.10493452 L28.3571704,4.1051401 Z" id="路径" fill="#EC7847"></path>
                </g>
            </g>
        </g>
    </g>
</svg>