<?xml version="1.0" encoding="UTF-8"?>
<svg width="40px" height="40px" viewBox="0 0 40 40" version="1.1" xmlns="http://www.w3.org/2000/svg" xmlns:xlink="http://www.w3.org/1999/xlink">
    <title>PPT</title>
    <defs>
        <rect id="path-1" x="0" y="0" width="40" height="40"></rect>
        <linearGradient x1="50%" y1="0%" x2="50%" y2="100%" id="linearGradient-3">
            <stop stop-color="#F38757" offset="0%"></stop>
            <stop stop-color="#E34F2C" offset="100%"></stop>
        </linearGradient>
    </defs>
    <g id="PPT" stroke="none" stroke-width="1" fill="none" fill-rule="evenodd">
        <g id="Group">
            <mask id="mask-2" fill="white">
                <use xlink:href="#path-1"></use>
            </mask>
            <use id="蒙版" fill="#F8F0EF" fill-rule="nonzero" opacity="0.701060268" xlink:href="#path-1"></use>
            <g id="ppt" mask="url(#mask-2)" fill-rule="nonzero">
                <g transform="translate(6.210526, 6.000000)">
                    <path d="M27.0218444,3.10713983 L14.6677406,3.10713983 L14.6677406,24.7268215 L27.0218444,24.7268215 C27.4630624,24.7268215 27.7866223,24.3738471 27.7866223,23.9620436 L27.7866223,3.90133222 C27.7866223,3.46011422 27.4630624,3.10713983 27.0218444,3.10713983 Z" id="路径" fill="#FEAFA1"></path>
                    <path d="M13.9029628,17.7849917 L24.7275109,17.7849917 L24.7275109,19.3145474 L13.9029628,19.3145474 L13.9029628,17.7849917 Z M13.9029628,20.8735177 L24.7275109,20.8735177 L24.7275109,22.4324879 L13.9029628,22.4324879 L13.9029628,20.8735177 Z M18.550459,6.98985816 C15.9913946,6.98985816 13.9029628,9.07828999 13.9029628,11.6373543 C13.9029628,14.1964187 15.9913946,16.2848505 18.550459,16.2848505 C21.1095233,16.2848505 23.1979552,14.1964187 23.1979552,11.6373543 L18.550459,11.6373543 L18.550459,6.98985816 Z" id="形状" fill="#F3F6FD"></path>
                    <path d="M20.0800147,5.43088792 L20.0800147,10.0783841 L24.7275109,10.0783841 C24.7275109,7.51931975 22.639079,5.43088792 20.0800147,5.43088792 Z" id="路径" fill="#F3F6FD"></path>
                    <polygon id="路径" fill="url(#linearGradient-3)" points="16.2267109 27.8447619 0.0193032872 24.756236 0.0193032872 3.10713983 16.2267109 0.0186138841"></polygon>
                    <path d="M8.37303061,8.637072 L4.72562854,8.637072 L4.72562854,19.2263038 L6.99054757,19.2263038 L6.99054757,15.5789017 L8.16712888,15.5789017 C9.43195379,15.5789017 10.4320479,15.2553419 11.1674112,14.5788076 C11.9027745,13.9316879 12.2851635,13.0492519 12.2851635,11.9903287 C12.2851635,9.75482425 10.9615095,8.637072 8.37303061,8.637072 L8.37303061,8.637072 Z M7.96122715,13.7552007 L6.99054757,13.7552007 L6.99054757,10.460773 L7.96122715,10.460773 C9.19663753,10.460773 9.81434272,10.9902346 9.81434272,12.0785723 C9.81434272,13.2257391 9.19663753,13.7552007 7.96122715,13.7552007 L7.96122715,13.7552007 Z" id="形状" fill="#FFFFFF"></path>
                </g>
            </g>
        </g>
    </g>
</svg>