<?xml version="1.0" encoding="UTF-8"?>
<svg width="40px" height="40px" viewBox="0 0 40 40" version="1.1" xmlns="http://www.w3.org/2000/svg" xmlns:xlink="http://www.w3.org/1999/xlink">
    <title>Group</title>
    <defs>
        <rect id="path-1" x="0" y="0" width="40" height="40"></rect>
        <linearGradient x1="50%" y1="0%" x2="50%" y2="100%" id="linearGradient-3">
            <stop stop-color="#004066" offset="0%"></stop>
            <stop stop-color="#001E36" offset="100%"></stop>
        </linearGradient>
    </defs>
    <g id="控件" stroke="none" stroke-width="1" fill="none" fill-rule="evenodd">
        <g id="Group">
            <mask id="mask-2" fill="white">
                <use xlink:href="#path-1"></use>
            </mask>
            <use id="蒙版" fill="#E8F0FF" fill-rule="nonzero" xlink:href="#path-1"></use>
            <g id="Ps" mask="url(#mask-2)" fill-rule="nonzero">
                <g transform="translate(5.000000, 6.000000)">
                    <path d="M27,7.27222222 L27,27.112037 C27,27.6046296 26.6035165,28 26.1167766,28 L5.67369963,28 C5.30300366,28 5,27.6986111 5,27.3226852 L5,0.495833333 C5,0.223611111 5.21919414,0 5.49318681,0 L19.2701832,0 C19.2991941,0 19.3120879,0.0324074074 19.2927473,0.0550925926 C19.2798535,0.0680555556 19.2798535,0.0875 19.2959707,0.100462963 L26.9903297,7.2462963 C26.9967766,7.25601852 27,7.2625 27,7.27222222 L27,7.27222222 Z" id="路径" fill="url(#linearGradient-3)"></path>
                    <path d="M15.5940701,10 L0.42955285,10 C0.191997107,10 0,9.81591264 0,9.58814353 L0,4.03432137 C0,3.80655226 0.191997107,3.6224649 0.42955285,3.6224649 L15.5940701,3.6224649 C15.8316259,3.6224649 16.023623,3.80655226 16.023623,4.03432137 L16.023623,9.58814353 C16.023623,9.81591264 15.8316259,10 15.5940701,10 Z M19.1997107,6.53978159 L19.1997107,0 L27,6.98599497 L19.6650597,6.98599497 C19.4079788,6.98907956 19.1997107,6.78627145 19.1997107,6.53978159 Z" id="形状" fill="#32A8FF"></path>
                    <path d="M4.50306748,7.93584906 L4.50306748,8.94716981 L4,8.94716981 L4,6.04528302 L4.81288344,6.04528302 C5.39877301,6.04528302 5.69325153,6.3509434 5.69325153,6.96226415 C5.69325153,7.26037736 5.60429448,7.49811321 5.42638037,7.6754717 C5.24846626,7.85660377 5.02760736,7.93962264 4.7607362,7.93207547 L4.50306748,7.93207547 L4.50306748,7.93584906 Z M4.50306748,6.5245283 L4.50306748,7.46037736 L4.7208589,7.46037736 C5.01533742,7.46037736 5.16564417,7.30188679 5.16564417,6.98490566 C5.16564417,6.6754717 5.01840491,6.52075472 4.72699387,6.52075472 L4.50306748,6.52075472 L4.50306748,6.5245283 Z M5.94171779,8.21509434 C6.13190184,8.40754717 6.34662577,8.50566038 6.58895706,8.50566038 C6.72699387,8.50566038 6.82822086,8.4754717 6.89877301,8.41886792 C6.96932515,8.36226415 7.00306748,8.28679245 7.00306748,8.19622642 C7.00306748,8.11698113 6.97546012,8.04150943 6.9202454,7.97358491 C6.86503067,7.90188679 6.7208589,7.80754717 6.48466258,7.69056604 C6.11656442,7.49811321 5.93251534,7.21886792 5.93251534,6.85283019 C5.93251534,6.58113208 6.01533742,6.37358491 6.18404908,6.22264151 C6.34969325,6.07169811 6.57361963,6 6.84662577,6 C7.07668712,6 7.26993865,6.03773585 7.42638037,6.10943396 L7.42638037,6.69056604 C7.26687117,6.55849057 7.08282209,6.49056604 6.87116564,6.49056604 C6.74846626,6.49056604 6.64723926,6.51698113 6.57361963,6.57358491 C6.5,6.63018868 6.46319018,6.70566038 6.46319018,6.79622642 C6.46319018,6.87169811 6.48773006,6.93962264 6.5398773,7.00377358 C6.59202454,7.06792453 6.71472393,7.1509434 6.91717791,7.26037736 C7.15030675,7.38490566 7.31288344,7.51320755 7.40184049,7.65283019 C7.49079755,7.78867925 7.53374233,7.95471698 7.53374233,8.14339623 C7.53374233,8.42264151 7.45398773,8.63396226 7.29447853,8.78113208 C7.13496933,8.92830189 6.90490798,9 6.61042945,9 C6.3404908,9 6.1196319,8.94716981 5.94478528,8.83773585 L5.94478528,8.21509434 L5.94171779,8.21509434 Z M7.92638037,8.94716981 L7.92638037,6.04528302 L8.74233129,6.04528302 C9.5797546,6.04528302 10,6.51698113 10,7.46037736 C10,7.90943396 9.88343558,8.26792453 9.64723926,8.53962264 C9.41411043,8.81132075 9.11042945,8.94716981 8.7392638,8.94716981 L7.92638037,8.94716981 L7.92638037,8.94716981 Z M8.42944785,6.5509434 L8.42944785,8.44150943 L8.70245399,8.44150943 C8.94171779,8.44150943 9.12883436,8.35471698 9.26380368,8.17735849 C9.39877301,8.00377358 9.46932515,7.76603774 9.46932515,7.46792453 C9.46932515,7.18113208 9.39877301,6.95471698 9.25460123,6.79245283 C9.11349693,6.63018868 8.92638037,6.5509434 8.6993865,6.5509434 L8.42944785,6.5509434 L8.42944785,6.5509434 Z" id="形状" fill="#000000"></path>
                    <path d="M12.4004863,20.1245791 L12.4004863,22.8653199 L11,22.8653199 L11,15 L13.2632859,15 C14.8982286,15 15.7172629,15.8282828 15.7172629,17.4882155 C15.7172629,18.2929293 15.4703022,18.9393939 14.9763807,19.4242424 C14.4824592,19.9090909 13.8634943,20.1414141 13.122612,20.1212121 L12.4004863,20.1212121 L12.4004863,20.1245791 Z M12.4004863,16.2996633 L12.4004863,18.8383838 L13.0069469,18.8383838 C13.8291073,18.8383838 14.2417506,18.4107744 14.2417506,17.5521886 C14.2417506,16.7171717 13.8353595,16.2996633 13.0194512,16.2996633 L12.4004863,16.2996633 L12.4004863,16.2996633 Z M16.451893,21.3569024 C16.9208058,21.7003367 17.3803404,21.8686869 17.8304967,21.8686869 C18.3963182,21.8686869 18.6807919,21.6868687 18.6807919,21.3265993 C18.6807919,21.0707071 18.4463355,20.8552189 17.9805488,20.6801347 C17.3990969,20.4646465 16.9958319,20.2222222 16.780132,19.956229 C16.561306,19.6902357 16.451893,19.3299663 16.451893,18.8787879 C16.451893,18.3265993 16.6394581,17.8956229 17.0114623,17.5824916 C17.3834665,17.2693603 17.8742619,17.1144781 18.4807225,17.1144781 C18.9121223,17.1144781 19.3247655,17.1919192 19.7249045,17.3434343 L19.7249045,18.6329966 C19.3591525,18.3771044 18.9590135,18.2457912 18.5182355,18.2457912 C18.2994095,18.2457912 18.1243487,18.2929293 17.9930531,18.3838384 C17.8586315,18.4781145 17.7929837,18.5993266 17.7929837,18.7508418 C17.7929837,19.006734 17.9899271,19.2154882 18.3869399,19.3737374 C18.8120875,19.5420875 19.1309482,19.6969697 19.3435221,19.8350168 C19.5560959,19.973064 19.7186523,20.1582492 19.8311914,20.3838384 C19.9437305,20.6094276 20,20.8720539 20,21.1717172 C20,21.7508418 19.8061827,22.1986532 19.4185481,22.5185185 C19.0309135,22.8383838 18.5119833,23 17.8648836,23 C17.3553317,23 16.8832928,22.9023569 16.451893,22.7104377 L16.451893,21.3569024 L16.451893,21.3569024 Z" id="形状" fill="#32A8FF"></path>
                </g>
            </g>
        </g>
    </g>
</svg>