<?xml version="1.0" encoding="UTF-8"?>
<svg width="40px" height="40px" viewBox="0 0 40 40" version="1.1" xmlns="http://www.w3.org/2000/svg" xmlns:xlink="http://www.w3.org/1999/xlink">
    <title>视屏</title>
    <defs>
        <rect id="path-1" x="0" y="0" width="40" height="40"></rect>
        <linearGradient x1="50%" y1="0%" x2="50%" y2="100%" id="linearGradient-3">
            <stop stop-color="#C6CFEE" offset="0%"></stop>
            <stop stop-color="#94A2D9" offset="100%"></stop>
        </linearGradient>
    </defs>
    <g id="素材中心" stroke="none" stroke-width="1" fill="none" fill-rule="evenodd">
        <g id="物料列表备份" transform="translate(-456.000000, -449.000000)">
            <g id="右边" transform="translate(408.000000, 88.000000)">
                <g id="表格" transform="translate(16.000000, 52.000000)">
                    <g id="编组-28" transform="translate(0.000000, 72.000000)">
                        <g id="编组-11备份-5" transform="translate(1.000000, 225.000000)">
                            <g id="Group" transform="translate(31.000000, 12.000000)">
                                <mask id="mask-2" fill="white">
                                    <use xlink:href="#path-1"></use>
                                </mask>
                                <use id="蒙版" fill="#EEF3FC" fill-rule="nonzero" opacity="0.701060268" xlink:href="#path-1"></use>
                                <g id="视频-(3)" mask="url(#mask-2)" fill-rule="nonzero">
                                    <g transform="translate(6.000000, 7.000000)">
                                        <path d="M0.0125,24.8458333 C0.0125,25.8739583 0.8,26.6614583 1.828125,26.6614583 L26.046875,26.6614583 C27.075,26.6614583 27.8625,25.8739583 27.8625,24.8458333 L27.8625,6.07708333 L0.0125,6.07708333 L0.0125,24.8458333 Z M9.7,11.5270833 C9.7,10.4989583 10.546875,10.0145833 11.515625,10.0145833 C11.81875,10.0145833 12.18125,10.0739583 12.484375,10.2552083 L19.3875,14.2520833 C20.596875,14.9177083 20.596875,16.6145833 19.3875,17.2802083 L12.484375,21.2739583 C12.18125,21.4552083 11.878125,21.5145833 11.515625,21.5145833 C10.546875,21.5145833 9.7,21.0302083 9.7,20.0020833 L9.7,11.5270833 L9.7,11.5270833 Z" id="形状" fill="url(#linearGradient-3)"></path>
                                        <polygon id="路径" fill="#5D6A96" points="12.18125 4.86770833 8.065625 0.0239583334 3.403125 0.0239583334 7.51875 4.86770833"></polygon>
                                        <polygon id="路径" fill="#5D6A96" points="24.290625 4.86770833 20.175 0.0239583334 15.5125 0.0239583334 19.628125 4.86770833"></polygon>
                                        <polygon id="路径" fill="#5D6A96" points="18.2375 4.86770833 14.121875 0.0239583334 9.459375 0.0239583334 13.575 4.86770833"></polygon>
                                        <path d="M26.046875,0.0239583334 L21.565625,0.0239583334 L25.68125,4.86770833 L27.8593843,4.86770833 L27.8593843,1.83958333 C27.8625,0.811458333 27.075,0.0239583334 26.046875,0.0239583334 L26.046875,0.0239583334 Z" id="路径" fill="#5D6A96"></path>
                                        <path d="M2.0125,0.0239583334 L1.83125,0.0239583334 C0.803125,0.0239583334 0.015625,0.811458333 0.015625,1.83958333 L0.015625,4.86770833 L6.13125,4.86770833 L2.0125,0.0239583334 L2.0125,0.0239583334 Z" id="路径" fill="#5D6A96"></path>
                                    </g>
                                </g>
                            </g>
                        </g>
                    </g>
                </g>
            </g>
        </g>
    </g>
</svg>