<?xml version="1.0" encoding="UTF-8"?>
<svg width="40px" height="40px" viewBox="0 0 40 40" version="1.1" xmlns="http://www.w3.org/2000/svg" xmlns:xlink="http://www.w3.org/1999/xlink">
    <title>word</title>
    <defs>
        <rect id="path-1" x="0" y="0" width="40" height="40"></rect>
        <linearGradient x1="50%" y1="0%" x2="50%" y2="100%" id="linearGradient-3">
            <stop stop-color="#1791EB" offset="0%"></stop>
            <stop stop-color="#006FC5" offset="100%"></stop>
        </linearGradient>
    </defs>
    <g id="word" stroke="none" stroke-width="1" fill="none" fill-rule="evenodd">
        <g id="Group">
            <mask id="mask-2" fill="white">
                <use xlink:href="#path-1"></use>
            </mask>
            <use id="蒙版" fill="#E7EEFB" fill-rule="nonzero" opacity="0.701060268" xlink:href="#path-1"></use>
            <g id="word-(1)" mask="url(#mask-2)" fill-rule="nonzero">
                <g transform="translate(6.000000, 7.000000)">
                    <path d="M27.9975922,23.5036496 C28.0008026,23.5373723 28.0008026,23.5710949 27.9975922,23.6078832 C27.936595,24.0738686 27.5513497,24.4417518 27.0633722,24.5 L16.3502618,24.5 C16.3609631,22.5972263 16.3727345,21.6458394 16.385576,21.6458394 L25.5769672,21.6458394 C25.7182238,21.6489051 25.8337974,21.5477372 25.8434286,21.4128467 L25.8434286,20.8978102 C25.8434286,20.7629197 25.7278549,20.6494891 25.5833879,20.6494891 C19.4044278,20.659708 16.3149477,20.6709489 16.3149477,20.6832117 C16.3256489,19.4262774 16.3374203,18.7978102 16.3502618,18.7978102 L25.5801776,18.7978102 C25.7182238,18.8008759 25.8337974,18.6966423 25.8402182,18.5648175 L25.8402182,18.0344526 C25.8402182,17.899562 25.7246446,17.7861314 25.5801776,17.7861314 C19.4033576,17.800438 16.3149477,17.8137226 16.3149477,17.8259854 C16.3320697,16.5588321 16.3438411,15.9232117 16.3502618,15.9191241 L25.5801776,15.9191241 C25.7214342,15.9191241 25.8402182,15.8087591 25.8402182,15.6708029 L25.8402182,15.1649635 C25.8402182,15.030073 25.7246446,14.9166423 25.5801776,14.9166423 C19.4033576,14.9309489 16.3149477,14.9442336 16.3149477,14.9564964 C16.3256489,13.7056934 16.3374203,13.0813139 16.3502618,13.0833577 L25.5801776,13.0833577 C25.7214342,13.0864234 25.8402182,12.9791241 25.8466389,12.8442336 L25.8466389,12.3230657 C25.8466389,12.1881752 25.7310653,12.0747445 25.5865983,12.0747445 C19.4054979,12.0890511 16.3149477,12.1023358 16.3149477,12.1145985 C16.3256489,10.8535766 16.3374203,10.2240876 16.3502618,10.2261314 L25.5801776,10.2261314 C25.7214342,10.2261314 25.8402182,10.1157664 25.8402182,9.97781022 L25.8402182,9.46277372 C25.8402182,9.32788321 25.7246446,9.21445255 25.5801776,9.21445255 C19.4033576,9.22467153 16.3149477,9.23591241 16.3149477,9.24817518 C16.3256489,7.99124088 16.3374203,7.36277372 16.3502618,7.36277372 L25.5801776,7.36277372 C25.7214342,7.36277372 25.8402182,7.25240876 25.8402182,7.11445255 L25.8402182,6.60554745 C25.8402182,6.47065693 25.7246446,6.35722628 25.5801776,6.35722628 C19.4033576,6.36744526 16.3149477,6.37868613 16.3149477,6.39094891 L16.3149477,3.5 L27.0441099,3.5 C27.5834534,3.56744526 27.9943818,4.00277372 27.9975922,4.52087591 L27.9975922,23.5036496 Z" id="路径" fill="#88BADD"></path>
                    <path d="M14.560758,0.0124999081 L10.3850272,0.793744167 L0.837440517,2.61560578 C0.736488783,2.63435564 0.638596193,2.67185537 0.549881033,2.721855 C0.213375255,2.89997869 0.00229435758,3.25310109 0.00229435758,3.63747327 L0.00229435758,24.2310719 C-0.00076478586,24.2623217 -0.00076478586,24.2904465 0.00229435758,24.3216963 C0.0298266485,24.7029435 0.265380693,25.037316 0.611063902,25.1873149 C0.678365058,25.2185647 0.748725357,25.2435645 0.822144799,25.2560644 L8.21609449,26.7123037 L14.5485214,27.9841694 C15.1083447,28.0841686 15.6375765,27.6997964 15.7354691,27.1310506 C15.7415874,27.1029258 15.7446465,27.074801 15.7477056,27.0498012 C15.7507648,27.0154265 15.7507648,26.9810517 15.7477056,26.943552 L15.7477056,1.07186712 C15.7630014,0.496871349 15.3194256,0.0187498622 14.7565432,0.00312497703 C14.689242,-0.00312497704 14.625,-7.95807864e-13 14.560758,0.0124999081 M12.6396159,9.37180613 L11.4220768,14.965515 C11.1620496,16.1592562 10.8959041,17.3561225 10.6481135,18.5529887 C10.614463,18.7217374 10.5441027,18.777987 10.381968,18.7561122 C9.88944596,18.7154875 9.39692386,18.6779877 8.90440177,18.6592379 C8.76062203,18.6592379 8.70555744,18.5904884 8.67802515,18.4498644 C8.2589225,16.3623798 7.83370156,14.2623952 7.40542148,12.1561607 C7.35647519,12.2092853 7.32588375,12.2780348 7.32282461,12.3530342 C6.92513596,14.3248947 6.52132903,16.2967552 6.12669952,18.2686157 C6.12669952,18.4373645 6.04410265,18.4717393 5.87890891,18.4561144 C5.44756968,18.4217396 5.01011217,18.3998648 4.57877294,18.3779899 C4.4135792,18.3779899 4.33098232,18.3217404 4.29733175,18.1342417 C3.78645479,15.4186367 3.26945955,12.6999067 2.74328688,9.9874266 C2.7096363,9.80617794 2.74328688,9.77180319 2.9207172,9.76242826 C3.29699184,9.76242826 3.6671482,9.72805351 4.04954113,9.68430383 C4.21473487,9.68430383 4.27591774,9.68430383 4.30345003,9.88742734 C4.48699864,11.1186683 4.68584296,12.3405343 4.878569,13.5749002 C5.00093474,14.3373946 5.11718219,15.099889 5.23342964,15.8592585 C5.20589735,15.918633 5.20589735,15.9873825 5.23342964,16.0467571 C5.30990823,16.1373814 5.29461251,16.0467571 5.3007308,16.0061324 C5.72901088,13.9280226 6.15729096,11.843663 6.57945275,9.76242826 C6.61310333,9.58117959 6.6742862,9.50930512 6.86701224,9.50930512 C7.28305574,9.50930512 7.7021584,9.46868042 8.11208362,9.42493074 C8.28339565,9.42493074 8.33846023,9.42493074 8.37211081,9.6343042 C8.78203603,11.7405387 9.19807954,13.8405233 9.61718219,15.9280079 C9.61718219,16.0061324 9.65695105,16.0748819 9.69366077,16.2155058 C9.92615568,14.8186411 10.1525323,13.4905259 10.3789089,12.1592856 C10.5349252,11.2374174 10.6878824,10.3217991 10.8377804,9.3624312 C10.8377804,9.24993202 10.892845,9.19368244 11.0090925,9.19368244 C11.4954963,9.19368244 11.9727226,9.13743285 12.4591264,9.09680815 C12.6579708,9.10618308 12.6640891,9.20930732 12.6396159,9.37180613" id="形状" fill="url(#linearGradient-3)"></path>
                </g>
            </g>
        </g>
    </g>
</svg>